<mxfile host="app.diagrams.net" modified="2024-06-25T22:04:46.718Z" agent="Mozilla/5.0 (Macintosh; Intel Mac OS X 10_15_7) AppleWebKit/537.36 (KHTML, like Gecko) Chrome/126.0.0.0 Safari/537.36" version="24.6.3" etag="2IS_gyqjYaPQN_5ZxJU9" type="github">
  <diagram name="Seite-1" id="AFdFdrYhO7nG40rc7YPx">
    <mxGraphModel>
      <root>
        <mxCell id="0" />
        <mxCell id="1" parent="0" />
      </root>
    </mxGraphModel>
  </diagram>
</mxfile>
